<mxfile host="app.diagrams.net" modified="2024-09-20T09:39:15.685Z" agent="Mozilla/5.0 (Windows NT 10.0; Win64; x64) AppleWebKit/537.36 (KHTML, like Gecko) Chrome/128.0.0.0 Safari/537.36" etag="iPN5mnXUOou3gWq1FxIU" version="23.1.7" type="device">
  <diagram name="Seite-1" id="1XncdXHAJjd4xyxPU_87">
    <mxGraphModel dx="1050" dy="530" grid="1" gridSize="10" guides="1" tooltips="1" connect="1" arrows="1" fold="1" page="1" pageScale="1" pageWidth="827" pageHeight="1169" math="0" shadow="0">
      <root>
        <mxCell id="0" />
        <mxCell id="1" parent="0" />
        <mxCell id="DXtmEjoiwM5aXj4LoKhO-8" value="UPDATING" style="swimlane;whiteSpace=wrap;html=1;" vertex="1" parent="1">
          <mxGeometry x="160" y="40" width="240" height="95" as="geometry" />
        </mxCell>
        <mxCell id="DXtmEjoiwM5aXj4LoKhO-9" value="The file has been added to the monitored &lt;br&gt;directory on&amp;nbsp;the data host or updates to it &lt;br&gt;have been detected.&amp;nbsp;" style="text;html=1;align=left;verticalAlign=middle;resizable=0;points=[];autosize=1;strokeColor=none;fillColor=none;" vertex="1" parent="DXtmEjoiwM5aXj4LoKhO-8">
          <mxGeometry x="10" y="30" width="240" height="60" as="geometry" />
        </mxCell>
        <mxCell id="DXtmEjoiwM5aXj4LoKhO-10" value="READY" style="swimlane;whiteSpace=wrap;html=1;" vertex="1" parent="1">
          <mxGeometry x="160" y="200" width="240" height="70" as="geometry" />
        </mxCell>
        <mxCell id="DXtmEjoiwM5aXj4LoKhO-11" value="The file is ready to be copied to the&lt;br&gt;remote host." style="text;html=1;align=left;verticalAlign=middle;resizable=0;points=[];autosize=1;strokeColor=none;fillColor=none;" vertex="1" parent="DXtmEjoiwM5aXj4LoKhO-10">
          <mxGeometry x="10" y="25" width="210" height="40" as="geometry" />
        </mxCell>
        <mxCell id="DXtmEjoiwM5aXj4LoKhO-12" value="" style="endArrow=classic;html=1;rounded=0;exitX=0.5;exitY=1;exitDx=0;exitDy=0;entryX=0.5;entryY=0;entryDx=0;entryDy=0;" edge="1" parent="1" source="DXtmEjoiwM5aXj4LoKhO-8" target="DXtmEjoiwM5aXj4LoKhO-10">
          <mxGeometry width="50" height="50" relative="1" as="geometry">
            <mxPoint x="440" y="250" as="sourcePoint" />
            <mxPoint x="490" y="200" as="targetPoint" />
          </mxGeometry>
        </mxCell>
        <mxCell id="DXtmEjoiwM5aXj4LoKhO-13" value="The file was not modified in the last 5 seconds.&lt;br&gt;(This is to prevent copying a file that is not &lt;br&gt;yet fully written.)" style="edgeLabel;html=1;align=center;verticalAlign=middle;resizable=0;points=[];" vertex="1" connectable="0" parent="DXtmEjoiwM5aXj4LoKhO-12">
          <mxGeometry x="-0.0327" y="-4" relative="1" as="geometry">
            <mxPoint as="offset" />
          </mxGeometry>
        </mxCell>
        <mxCell id="DXtmEjoiwM5aXj4LoKhO-26" value="" style="edgeStyle=orthogonalEdgeStyle;rounded=0;orthogonalLoop=1;jettySize=auto;html=1;entryX=0.5;entryY=0;entryDx=0;entryDy=0;" edge="1" parent="1" source="DXtmEjoiwM5aXj4LoKhO-14" target="DXtmEjoiwM5aXj4LoKhO-18">
          <mxGeometry relative="1" as="geometry" />
        </mxCell>
        <mxCell id="DXtmEjoiwM5aXj4LoKhO-30" value="Start Hercules file transfer." style="edgeLabel;html=1;align=center;verticalAlign=middle;resizable=0;points=[];" vertex="1" connectable="0" parent="DXtmEjoiwM5aXj4LoKhO-26">
          <mxGeometry x="-0.144" y="-1" relative="1" as="geometry">
            <mxPoint as="offset" />
          </mxGeometry>
        </mxCell>
        <mxCell id="DXtmEjoiwM5aXj4LoKhO-14" value="COPIED" style="swimlane;whiteSpace=wrap;html=1;" vertex="1" parent="1">
          <mxGeometry x="160" y="320" width="240" height="70" as="geometry" />
        </mxCell>
        <mxCell id="DXtmEjoiwM5aXj4LoKhO-15" value="The file has been copied to the &lt;br&gt;transfer host." style="text;html=1;align=left;verticalAlign=middle;resizable=0;points=[];autosize=1;strokeColor=none;fillColor=none;" vertex="1" parent="DXtmEjoiwM5aXj4LoKhO-14">
          <mxGeometry x="10" y="25" width="190" height="40" as="geometry" />
        </mxCell>
        <mxCell id="DXtmEjoiwM5aXj4LoKhO-16" value="" style="endArrow=classic;html=1;rounded=0;exitX=0.5;exitY=1;exitDx=0;exitDy=0;entryX=0.5;entryY=0;entryDx=0;entryDy=0;" edge="1" parent="1" source="DXtmEjoiwM5aXj4LoKhO-10" target="DXtmEjoiwM5aXj4LoKhO-14">
          <mxGeometry width="50" height="50" relative="1" as="geometry">
            <mxPoint x="440" y="350" as="sourcePoint" />
            <mxPoint x="490" y="300" as="targetPoint" />
          </mxGeometry>
        </mxCell>
        <mxCell id="DXtmEjoiwM5aXj4LoKhO-17" value="The file is copied with SFTP." style="edgeLabel;html=1;align=center;verticalAlign=middle;resizable=0;points=[];" vertex="1" connectable="0" parent="DXtmEjoiwM5aXj4LoKhO-16">
          <mxGeometry x="0.056" y="-3" relative="1" as="geometry">
            <mxPoint as="offset" />
          </mxGeometry>
        </mxCell>
        <mxCell id="DXtmEjoiwM5aXj4LoKhO-27" value="" style="edgeStyle=orthogonalEdgeStyle;rounded=0;orthogonalLoop=1;jettySize=auto;html=1;entryX=0.5;entryY=0;entryDx=0;entryDy=0;" edge="1" parent="1" source="DXtmEjoiwM5aXj4LoKhO-18" target="DXtmEjoiwM5aXj4LoKhO-20">
          <mxGeometry relative="1" as="geometry" />
        </mxCell>
        <mxCell id="DXtmEjoiwM5aXj4LoKhO-31" value="Hercules transfer complete." style="edgeLabel;html=1;align=center;verticalAlign=middle;resizable=0;points=[];" vertex="1" connectable="0" parent="DXtmEjoiwM5aXj4LoKhO-27">
          <mxGeometry x="-0.104" y="-1" relative="1" as="geometry">
            <mxPoint as="offset" />
          </mxGeometry>
        </mxCell>
        <mxCell id="DXtmEjoiwM5aXj4LoKhO-18" value="SENDING" style="swimlane;whiteSpace=wrap;html=1;" vertex="1" parent="1">
          <mxGeometry x="160" y="440" width="240" height="70" as="geometry" />
        </mxCell>
        <mxCell id="DXtmEjoiwM5aXj4LoKhO-19" value="The hercules transfer has been started." style="text;html=1;align=left;verticalAlign=middle;resizable=0;points=[];autosize=1;strokeColor=none;fillColor=none;" vertex="1" parent="DXtmEjoiwM5aXj4LoKhO-18">
          <mxGeometry x="10" y="30" width="230" height="30" as="geometry" />
        </mxCell>
        <mxCell id="DXtmEjoiwM5aXj4LoKhO-20" value="SENT" style="swimlane;whiteSpace=wrap;html=1;" vertex="1" parent="1">
          <mxGeometry x="160" y="560" width="240" height="70" as="geometry" />
        </mxCell>
        <mxCell id="DXtmEjoiwM5aXj4LoKhO-21" value="The file hercules transfer of the file has &lt;br&gt;completed successfully." style="text;html=1;align=left;verticalAlign=middle;resizable=0;points=[];autosize=1;strokeColor=none;fillColor=none;" vertex="1" parent="DXtmEjoiwM5aXj4LoKhO-20">
          <mxGeometry x="10" y="25" width="230" height="40" as="geometry" />
        </mxCell>
        <mxCell id="DXtmEjoiwM5aXj4LoKhO-22" value="DELETED" style="swimlane;whiteSpace=wrap;html=1;" vertex="1" parent="1">
          <mxGeometry x="160" y="680" width="240" height="70" as="geometry" />
        </mxCell>
        <mxCell id="DXtmEjoiwM5aXj4LoKhO-23" value="The file is deleted from the temporary &lt;br&gt;storage on the transfer host." style="text;html=1;align=left;verticalAlign=middle;resizable=0;points=[];autosize=1;strokeColor=none;fillColor=none;" vertex="1" parent="DXtmEjoiwM5aXj4LoKhO-22">
          <mxGeometry x="10" y="25" width="220" height="40" as="geometry" />
        </mxCell>
        <mxCell id="DXtmEjoiwM5aXj4LoKhO-29" value="" style="edgeStyle=orthogonalEdgeStyle;rounded=0;orthogonalLoop=1;jettySize=auto;html=1;entryX=0.5;entryY=0;entryDx=0;entryDy=0;" edge="1" parent="1" target="DXtmEjoiwM5aXj4LoKhO-22">
          <mxGeometry relative="1" as="geometry">
            <mxPoint x="280" y="630" as="sourcePoint" />
          </mxGeometry>
        </mxCell>
        <mxCell id="DXtmEjoiwM5aXj4LoKhO-32" value="File is deleted." style="edgeLabel;html=1;align=center;verticalAlign=middle;resizable=0;points=[];" vertex="1" connectable="0" parent="DXtmEjoiwM5aXj4LoKhO-29">
          <mxGeometry x="-0.1122" y="1" relative="1" as="geometry">
            <mxPoint as="offset" />
          </mxGeometry>
        </mxCell>
      </root>
    </mxGraphModel>
  </diagram>
</mxfile>
